<?xml version="1.0" encoding="UTF-8"?>
<svg version="1.1" xmlns="http://www.w3.org/2000/svg" width="16" height="16">
<path d="M0 0 C-0.875 3.875 -0.875 3.875 -2 5 C-2.23075082 6.34747084 -2.41153063 7.70377565 -2.5625 9.0625 C-2.706875 10.361875 -2.85125 11.66125 -3 13 C-6.96 13 -10.92 13 -15 13 C-15 8.38 -15 3.76 -15 -1 C-9.66353134 -2.77882289 -5.04741524 -2.44723163 0 0 Z " fill="#F1F9FE" transform="translate(16,2)"/>
<path d="M0 0 C-0.875 3.875 -0.875 3.875 -2 5 C-2.23075082 6.34747084 -2.41153063 7.70377565 -2.5625 9.0625 C-2.706875 10.361875 -2.85125 11.66125 -3 13 C-6.96 13 -10.92 13 -15 13 C-15 8.38 -15 3.76 -15 -1 C-9.66353134 -2.77882289 -5.04741524 -2.44723163 0 0 Z M-14 0 C-14 3.96 -14 7.92 -14 12 C-10.7 12 -7.4 12 -4 12 C-4 10.35 -4 8.7 -4 7 C-5.65 7.66 -7.3 8.32 -9 9 C-8.34 8.071875 -7.68 7.14375 -7 6.1875 C-4.73425446 3.20363444 -4.73425446 3.20363444 -5 0 C-7.97 0 -10.94 0 -14 0 Z " fill="#A3B7CA" transform="translate(16,2)"/>
<path d="M0 0 C0.66 0.33 1.32 0.66 2 1 C1.6875 2.9375 1.6875 2.9375 1 5 C0.01 5.33 -0.98 5.66 -2 6 C-2.33 6.99 -2.66 7.98 -3 9 C-5.0625 9.6875 -5.0625 9.6875 -7 10 C-5.6062718 5.56541027 -3.39417765 3.12621626 0 0 Z " fill="#CB966C" transform="translate(14,1)"/>
<path d="M0 0 C0.66 0.33 1.32 0.66 2 1 C1.67 1.66 1.34 2.32 1 3 C-0.45792884 3.05399736 -1.91642712 3.09279177 -3.375 3.125 C-4.18710938 3.14820313 -4.99921875 3.17140625 -5.8359375 3.1953125 C-8 3 -8 3 -10 1 C-6.49852959 -0.1671568 -3.67329964 -0.13357453 0 0 Z " fill="#95A8BB" transform="translate(11,0)"/>
</svg>
